<svg width="40" height="41" viewBox="0 0 40 41" fill="none" xmlns="http://www.w3.org/2000/svg">
<g id="mingcute:menu-line" clip-path="url(#clip0_199_4138)">
<g id="Group">
<path id="Vector" d="M33.3333 30.4998C33.7581 30.5003 34.1667 30.663 34.4756 30.9546C34.7845 31.2462 34.9704 31.6448 34.9953 32.0688C35.0202 32.4929 34.8822 32.9105 34.6096 33.2362C34.3369 33.562 33.9502 33.7713 33.5283 33.8215L33.3333 33.8332H6.66667C6.24187 33.8327 5.83328 33.67 5.52439 33.3784C5.21549 33.0868 5.02961 32.6882 5.00471 32.2642C4.97982 31.8401 5.11779 31.4225 5.39044 31.0968C5.66309 30.771 6.04984 30.5617 6.47167 30.5115L6.66667 30.4998H33.3333ZM33.3333 18.8332C33.7754 18.8332 34.1993 19.0088 34.5118 19.3213C34.8244 19.6339 35 20.0578 35 20.4998C35 20.9419 34.8244 21.3658 34.5118 21.6783C34.1993 21.9909 33.7754 22.1665 33.3333 22.1665H6.66667C6.22464 22.1665 5.80072 21.9909 5.48816 21.6783C5.17559 21.3658 5 20.9419 5 20.4998C5 20.0578 5.17559 19.6339 5.48816 19.3213C5.80072 19.0088 6.22464 18.8332 6.66667 18.8332H33.3333ZM33.3333 7.1665C33.7754 7.1665 34.1993 7.3421 34.5118 7.65466C34.8244 7.96722 35 8.39114 35 8.83317C35 9.2752 34.8244 9.69912 34.5118 10.0117C34.1993 10.3242 33.7754 10.4998 33.3333 10.4998H6.66667C6.22464 10.4998 5.80072 10.3242 5.48816 10.0117C5.17559 9.69912 5 9.2752 5 8.83317C5 8.39114 5.17559 7.96722 5.48816 7.65466C5.80072 7.3421 6.22464 7.1665 6.66667 7.1665H33.3333Z" fill="#191919"/>
</g>
</g>
<defs>
<clipPath id="clip0_199_4138">
<rect width="40" height="40" fill="white" transform="translate(0 0.5)"/>
</clipPath>
</defs>
</svg>
