<svg width="42" height="30" viewBox="0 0 42 30" fill="none" xmlns="http://www.w3.org/2000/svg">
<path fill-rule="evenodd" clip-rule="evenodd" d="M41.25 15C41.25 14.4033 41.0129 13.831 40.591 13.409C40.169 12.9871 39.5967 12.75 39 12.75L8.42997 12.75L16.59 4.59003C16.9874 4.1635 17.2038 3.59936 17.1935 3.01646C17.1832 2.43356 16.9471 1.8774 16.5348 1.46516C16.1226 1.05292 15.5664 0.816787 14.9835 0.806502C14.4006 0.796218 13.8365 1.01259 13.41 1.41003L1.40997 13.41C0.988623 13.8319 0.751954 14.4038 0.751954 15C0.751954 15.5963 0.988623 16.1682 1.40997 16.59L13.41 28.59C13.8365 28.9875 14.4006 29.2038 14.9835 29.1936C15.5664 29.1833 16.1226 28.9471 16.5348 28.5349C16.9471 28.1227 17.1832 27.5665 17.1935 26.9836C17.2038 26.4007 16.9874 25.8366 16.59 25.41L8.42997 17.25L39 17.25C39.5967 17.25 40.169 17.013 40.591 16.591C41.0129 16.1691 41.25 15.5968 41.25 15Z" fill="#6C6C6C"/>
</svg>
