<svg width="40" height="40" viewBox="0 0 40 40" fill="none" xmlns="http://www.w3.org/2000/svg">
<path d="M6.66666 34.9999C5.74999 34.9999 4.96555 34.6738 4.31333 34.0216C3.66111 33.3694 3.33444 32.5844 3.33333 31.6666V13.3333C3.33333 12.4166 3.66 11.6321 4.31333 10.9799C4.96666 10.3277 5.75111 10.001 6.66666 9.99992H13.3333V6.66659C13.3333 5.74992 13.66 4.96547 14.3133 4.31325C14.9667 3.66103 15.7511 3.33436 16.6667 3.33325H23.3333C24.25 3.33325 25.035 3.65992 25.6883 4.31325C26.3417 4.96659 26.6678 5.75103 26.6667 6.66659V9.99992H33.3333C34.25 9.99992 35.035 10.3266 35.6883 10.9799C36.3417 11.6333 36.6678 12.4177 36.6667 13.3333V31.6666C36.6667 32.5833 36.3405 33.3683 35.6883 34.0216C35.0361 34.6749 34.2511 35.001 33.3333 34.9999H6.66666ZM6.66666 31.6666H33.3333V13.3333H6.66666V31.6666ZM16.6667 9.99992H23.3333V6.66659H16.6667V9.99992Z" fill="#2C74D3"/>
</svg>
