<svg width="40" height="40" viewBox="0 0 40 40" fill="none" xmlns="http://www.w3.org/2000/svg">
<path fill-rule="evenodd" clip-rule="evenodd" d="M33.3333 5C34.1743 4.99973 34.9843 5.31734 35.6009 5.88916C36.2175 6.46098 36.5953 7.24474 36.6583 8.08333L36.6667 8.33333V31.6667C36.6669 32.5076 36.3493 33.3176 35.7775 33.9342C35.2057 34.5509 34.4219 34.9286 33.5833 34.9917L33.3333 35H6.66666C5.8257 35.0003 5.01572 34.6827 4.39908 34.1108C3.78245 33.539 3.40473 32.7553 3.34166 31.9167L3.33333 31.6667V23.3333C3.33306 22.4924 3.65067 21.6824 4.22249 21.0658C4.79431 20.4491 5.57807 20.0714 6.41666 20.0083L6.66666 20H13.3333V16.6667C13.3331 15.8257 13.6507 15.0157 14.2225 14.3991C14.7943 13.7825 15.5781 13.4047 16.4167 13.3417L16.6667 13.3333H23.3333V8.33333C23.3331 7.49237 23.6507 6.68239 24.2225 6.06575C24.7943 5.44912 25.5781 5.07141 26.4167 5.00833L26.6667 5H33.3333ZM33.3333 8.33333H26.6667V31.6667H33.3333V8.33333ZM23.3333 16.6667H16.6667V31.6667H23.3333V16.6667ZM13.3333 23.3333H6.66666V31.6667H13.3333V23.3333Z" fill="#2C74D3"/>
</svg>
