<svg width="40" height="40" viewBox="0 0 40 40" fill="none" xmlns="http://www.w3.org/2000/svg">
<g clip-path="url(#clip0_213_4163)">
<path d="M30 10C30.841 9.99973 31.6509 10.3173 32.2676 10.8892C32.8842 11.461 33.2619 12.2447 33.325 13.0833L33.3333 13.3333V15C34.1743 14.9997 34.9843 15.3173 35.6009 15.8892C36.2175 16.461 36.5953 17.2447 36.6583 18.0833L36.6667 18.3333V21.6667C36.6669 22.5076 36.3493 23.3176 35.7775 23.9342C35.2057 24.5509 34.4219 24.9286 33.5833 24.9917L33.3333 25V26.6667C33.3336 27.5076 33.016 28.3176 32.4442 28.9342C31.8723 29.5509 31.0886 29.9286 30.25 29.9917L30 30H6.66666C5.8257 30.0003 5.01572 29.6827 4.39908 29.1108C3.78245 28.539 3.40473 27.7553 3.34166 26.9167L3.33333 26.6667V13.3333C3.33306 12.4924 3.65067 11.6824 4.22249 11.0658C4.79431 10.4491 5.57807 10.0714 6.41666 10.0083L6.66666 10H30ZM30 13.3333H6.66666V26.6667H30V13.3333ZM9.99999 15C10.442 15 10.8659 15.1756 11.1785 15.4882C11.4911 15.8007 11.6667 16.2246 11.6667 16.6667V23.3333C11.6667 23.7754 11.4911 24.1993 11.1785 24.5118C10.8659 24.8244 10.442 25 9.99999 25C9.55797 25 9.13404 24.8244 8.82148 24.5118C8.50892 24.1993 8.33333 23.7754 8.33333 23.3333V16.6667C8.33333 16.2246 8.50892 15.8007 8.82148 15.4882C9.13404 15.1756 9.55797 15 9.99999 15ZM15 15C15.4082 15.0001 15.8022 15.1499 16.1073 15.4212C16.4123 15.6925 16.6072 16.0662 16.655 16.4717L16.6667 16.6667V23.3333C16.6662 23.7581 16.5035 24.1667 16.2119 24.4756C15.9203 24.7845 15.5217 24.9704 15.0977 24.9953C14.6736 25.0202 14.256 24.8822 13.9303 24.6096C13.6045 24.3369 13.3952 23.9502 13.345 23.5283L13.3333 23.3333V16.6667C13.3333 16.2246 13.5089 15.8007 13.8215 15.4882C14.134 15.1756 14.558 15 15 15ZM20 15C20.442 15 20.8659 15.1756 21.1785 15.4882C21.4911 15.8007 21.6667 16.2246 21.6667 16.6667V23.3333C21.6667 23.7754 21.4911 24.1993 21.1785 24.5118C20.8659 24.8244 20.442 25 20 25C19.558 25 19.134 24.8244 18.8215 24.5118C18.5089 24.1993 18.3333 23.7754 18.3333 23.3333V16.6667C18.3333 16.2246 18.5089 15.8007 18.8215 15.4882C19.134 15.1756 19.558 15 20 15ZM25 15C25.4082 15.0001 25.8022 15.1499 26.1073 15.4212C26.4123 15.6925 26.6072 16.0662 26.655 16.4717L26.6667 16.6667V23.3333C26.6662 23.7581 26.5035 24.1667 26.2119 24.4756C25.9203 24.7845 25.5217 24.9704 25.0977 24.9953C24.6736 25.0202 24.256 24.8822 23.9303 24.6096C23.6045 24.3369 23.3952 23.9502 23.345 23.5283L23.3333 23.3333V16.6667C23.3333 16.2246 23.5089 15.8007 23.8215 15.4882C24.134 15.1756 24.558 15 25 15Z" fill="#2C74D3"/>
</g>
<defs>
<clipPath id="clip0_213_4163">
<rect width="40" height="40" fill="white"/>
</clipPath>
</defs>
</svg>
