<svg width="40" height="40" viewBox="0 0 40 40" fill="none" xmlns="http://www.w3.org/2000/svg">
<g clip-path="url(#clip0_213_4156)">
<path fill-rule="evenodd" clip-rule="evenodd" d="M20 31.6666C20.4082 31.6666 20.8022 31.8165 21.1073 32.0878C21.4123 32.359 21.6072 32.7328 21.655 33.1383L21.6667 33.3333V34.9999C21.6662 35.4247 21.5035 35.8333 21.2119 36.1422C20.9203 36.4511 20.5217 36.637 20.0977 36.6619C19.6736 36.6868 19.256 36.5488 18.9303 36.2761C18.6045 36.0035 18.3952 35.6167 18.345 35.1949L18.3333 34.9999V33.3333C18.3333 32.8912 18.5089 32.4673 18.8215 32.1547C19.134 31.8422 19.558 31.6666 20 31.6666ZM11.75 28.2499C12.0624 28.5625 12.238 28.9863 12.238 29.4283C12.238 29.8702 12.0624 30.294 11.75 30.6066L10.5717 31.7849C10.4179 31.9441 10.234 32.0711 10.0307 32.1584C9.82733 32.2458 9.60863 32.2917 9.38733 32.2937C9.16603 32.2956 8.94657 32.2534 8.74174 32.1696C8.53691 32.0858 8.35082 31.9621 8.19434 31.8056C8.03785 31.6491 7.91409 31.463 7.83029 31.2582C7.74649 31.0533 7.70432 30.8339 7.70624 30.6126C7.70817 30.3913 7.75414 30.1726 7.84149 29.9692C7.92884 29.7659 8.05581 29.582 8.21499 29.4283L9.39333 28.2499C9.70587 27.9375 10.1297 27.7619 10.5717 27.7619C11.0136 27.7619 11.4374 27.9375 11.75 28.2499ZM30.6067 28.2499L31.785 29.4283C32.0886 29.7426 32.2566 30.1636 32.2528 30.6006C32.249 31.0376 32.0737 31.4556 31.7647 31.7646C31.4557 32.0736 31.0377 32.2489 30.6007 32.2527C30.1637 32.2565 29.7427 32.0885 29.4283 31.7849L28.25 30.6066C27.9464 30.2922 27.7784 29.8712 27.7822 29.4342C27.786 28.9973 27.9613 28.5792 28.2703 28.2702C28.5793 27.9612 28.9973 27.7859 29.4343 27.7821C29.8713 27.7783 30.2923 27.9463 30.6067 28.2499ZM21.0283 3.33325C21.8409 3.33308 22.6256 3.62973 23.2348 4.16746C23.8441 4.70518 24.2359 5.44693 24.3367 6.25325L24.97 11.3199C26.8828 12.4155 28.38 14.1123 29.2288 16.1466C30.0777 18.1809 30.2305 20.4387 29.6637 22.5689C29.0969 24.6991 27.8421 26.5823 26.0945 27.9257C24.3468 29.2691 22.2043 29.9974 20 29.9974C17.7957 29.9974 15.6531 29.2691 13.9055 27.9257C12.1579 26.5823 10.9031 24.6991 10.3363 22.5689C9.76944 20.4387 9.92233 18.1809 10.7712 16.1466C11.62 14.1123 13.1172 12.4155 15.03 11.3199L15.6633 6.25325C15.7641 5.44693 16.1559 4.70518 16.7652 4.16746C17.3744 3.62973 18.1591 3.33308 18.9717 3.33325H21.0283ZM20 13.3333C18.2319 13.3333 16.5362 14.0356 15.2859 15.2859C14.0357 16.5361 13.3333 18.2318 13.3333 19.9999C13.3333 21.768 14.0357 23.4637 15.2859 24.714C16.5362 25.9642 18.2319 26.6666 20 26.6666C21.7681 26.6666 23.4638 25.9642 24.714 24.714C25.9643 23.4637 26.6667 21.768 26.6667 19.9999C26.6667 18.2318 25.9643 16.5361 24.714 15.2859C23.4638 14.0356 21.7681 13.3333 20 13.3333ZM6.66666 18.3333C7.10869 18.3333 7.53261 18.5088 7.84517 18.8214C8.15773 19.134 8.33333 19.5579 8.33333 19.9999C8.33333 20.4419 8.15773 20.8659 7.84517 21.1784C7.53261 21.491 7.10869 21.6666 6.66666 21.6666H4.99999C4.55797 21.6666 4.13404 21.491 3.82148 21.1784C3.50892 20.8659 3.33333 20.4419 3.33333 19.9999C3.33333 19.5579 3.50892 19.134 3.82148 18.8214C4.13404 18.5088 4.55797 18.3333 4.99999 18.3333H6.66666ZM35 18.3333C35.442 18.3333 35.8659 18.5088 36.1785 18.8214C36.4911 19.134 36.6667 19.5579 36.6667 19.9999C36.6667 20.4419 36.4911 20.8659 36.1785 21.1784C35.8659 21.491 35.442 21.6666 35 21.6666H33.3333C32.8913 21.6666 32.4674 21.491 32.1548 21.1784C31.8423 20.8659 31.6667 20.4419 31.6667 19.9999C31.6667 19.5579 31.8423 19.134 32.1548 18.8214C32.4674 18.5088 32.8913 18.3333 33.3333 18.3333H35ZM31.785 8.21658C32.0974 8.52913 32.273 8.95298 32.273 9.39492C32.273 9.83686 32.0974 10.2607 31.785 10.5733L30.6067 11.7516C30.4529 11.9108 30.269 12.0377 30.0657 12.1251C29.8623 12.2124 29.6436 12.2584 29.4223 12.2603C29.201 12.2623 28.9816 12.2201 28.7767 12.1363C28.5719 12.0525 28.3858 11.9287 28.2293 11.7722C28.0728 11.6158 27.9491 11.4297 27.8653 11.2248C27.7815 11.02 27.7393 10.8005 27.7412 10.5793C27.7432 10.358 27.7891 10.1393 27.8765 9.93591C27.9638 9.73257 28.0908 9.54866 28.25 9.39492L29.4283 8.21658C29.7409 7.90413 30.1647 7.72861 30.6067 7.72861C31.0486 7.72861 31.4724 7.90413 31.785 8.21658ZM10.5717 8.21658L11.75 9.39492C12.0461 9.71067 12.2077 10.1292 12.2007 10.562C12.1937 10.9948 12.0185 11.4079 11.7123 11.7139C11.4062 12.0199 10.9929 12.1947 10.5601 12.2014C10.1273 12.2082 9.70887 12.0462 9.39333 11.7499L8.21499 10.5716C7.9189 10.2558 7.75727 9.83727 7.7643 9.40447C7.77133 8.97166 7.94646 8.55857 8.25265 8.2526C8.55884 7.94663 8.97205 7.77178 9.40486 7.76506C9.83767 7.75834 10.2561 7.92027 10.5717 8.21658ZM21.0283 6.66659H18.9717L18.555 9.99992H21.445L21.0283 6.66659Z" fill="#2C74D3"/>
</g>
<defs>
<clipPath id="clip0_213_4156">
<rect width="40" height="40" fill="white"/>
</clipPath>
</defs>
</svg>
