<svg width="42" height="30" viewBox="0 0 42 30" fill="none" xmlns="http://www.w3.org/2000/svg">
<path fill-rule="evenodd" clip-rule="evenodd" d="M0.750026 15C0.750026 14.4033 0.987079 13.831 1.40904 13.409C1.83099 12.9871 2.40329 12.75 3.00003 12.75L33.57 12.75L25.41 4.59003C25.0126 4.1635 24.7962 3.59936 24.8065 3.01646C24.8168 2.43356 25.0529 1.8774 25.4652 1.46516C25.8774 1.05292 26.4336 0.816787 27.0165 0.806502C27.5994 0.796218 28.1635 1.01259 28.59 1.41003L40.59 13.41C41.0114 13.8319 41.248 14.4038 41.248 15C41.248 15.5963 41.0114 16.1682 40.59 16.59L28.59 28.59C28.1635 28.9875 27.5994 29.2038 27.0165 29.1936C26.4336 29.1833 25.8774 28.9471 25.4652 28.5349C25.0529 28.1227 24.8168 27.5665 24.8065 26.9836C24.7962 26.4007 25.0126 25.8366 25.41 25.41L33.57 17.25L3.00003 17.25C2.40329 17.25 1.83099 17.013 1.40904 16.591C0.987079 16.1691 0.750026 15.5968 0.750026 15Z" fill="#6C6C6C"/>
</svg>
